#!OML:ASF E:\Steps\Project 1\Capture day 1\Session 2\Subject.ASF
:FULLY-SPECIFIED
:DEGREES
42
root -1.36412 17.9609 20.6276 -154.982 1.06586 177.918
lowerback -27.5987 -3.05982 -7.90527
upperback -0.636258 -0.907611 -0.266784
thorax 14.1145 -0.686546 3.73824
lowerneck -1.39646 -3.25179 -0.510074
upperneck 8.31208 -4.38955 3.94989
head 3.01259 -1.95712 1.23589
rclavicle 1.05356e-014 2.42517e-014
rhumerus -38.0504 -17.9917 -77.7556
rradius 32.8193
rwrist -2.87633
rhand -8.03249 -56.9926
rfingers 7.12502
rthumb 17.8776 -86.1909
lclavicle 1.05356e-014 2.42517e-014
lhumerus -31.1705 5.62382 80.0929
lradius 20.3002
lwrist -7.0887
lhand -21.7051 -13.0514
lfingers 7.12502
lthumb 4.69349 16.8767
rfemur -23.8501 6.16565 19.2748
rtibia 10.5888
rfoot -19.4917 -3.14887
rtoes -25.5605
lfemur -22.0627 -3.11414 -24.8814
ltibia 7.08919
lfoot -6.02628 -6.99853
ltoes -22.5687
43
root -1.3662 17.9636 20.6256 -154.999 1.01743 177.904
lowerback -27.4498 -3.07237 -7.93798
upperback -0.736426 -0.917593 -0.293268
thorax 13.9295 -0.678361 3.72651
lowerneck -1.20932 -3.47953 -0.285092
upperneck 8.08617 -4.69307 3.85714
head 2.89887 -2.11193 1.15952
rclavicle 3.77691e-015 -2.38542e-015
rhumerus -38.2952 -18.0185 -77.668
rradius 32.7001
rwrist -2.86527
rhand -8.76894 -55.0281
rfingers 7.12502
rthumb 17.1688 -84.2896
lclavicle 3.77691e-015 -2.38542e-015
lhumerus -31.3665 5.81392 79.7921
lradius 19.9157
lwrist -7.27805
lhand -21.6759 -12.8228
lfingers 7.12502
lthumb 4.72174 17.1045
rfemur -23.8239 6.24418 19.2493
rtibia 10.6006
rfoot -19.4723 -3.35806
rtoes -25.9172
lfemur -22.0375 -3.14442 -24.8871
ltibia 7.12637
lfoot -6.09759 -6.99707
ltoes -22.4872
44
root -1.36876 17.9608 20.6223 -154.946 1.03804 177.866
lowerback -27.4808 -3.09964 -7.97469
upperback -0.770662 -0.9303 -0.308464
thorax 13.9062 -0.680776 3.72497
lowerneck -1.22056 -3.60668 -0.180279
upperneck 7.9743 -4.86674 3.8044
head 2.86219 -2.2012 1.1188
rclavicle -5.06901e-015 -1.35174e-014
rhumerus -38.2939 -17.9741 -77.6781
rradius 32.4429
rwrist -3.17488
rhand -7.50207 -57.7193
rfingers 7.12502
rthumb 18.3879 -86.8702
lclavicle -5.06901e-015 -1.35174e-014
lhumerus -31.4855 6.09064 79.5529
lradius 19.5969
lwrist -7.48355
lhand -21.5159 -12.7368
lfingers 7.12502
lthumb 4.87617 17.1871
rfemur -23.8467 6.29138 19.1757
rtibia 10.5649
rfoot -19.4132 -3.467
rtoes -26.0284
lfemur -22.0497 -3.31265 -24.8972
ltibia 7.01289
lfoot -6.05694 -6.84548
ltoes -20.9464
45
root -1.37092 17.9597 20.6198 -154.929 1.00012 177.881
lowerback -27.4946 -3.13523 -7.95453
upperback -0.76146 -0.984322 -0.297356
thorax 13.9299 -0.705587 3.70539
lowerneck -1.25668 -3.63354 -0.123188
upperneck 7.97061 -4.90368 3.75364
head 2.86494 -2.22001 1.09075
rclavicle -9.34288e-015 -1.51076e-014
rhumerus -38.2283 -17.9726 -77.6757
rradius 32.2095
rwrist -3.20615
rhand -7.75223 -57.4473
rfingers 7.12502
rthumb 18.1472 -86.6208
lclavicle -9.34288e-015 -1.51076e-014
lhumerus -31.5442 6.37208 79.3779
lradius 19.3081
lwrist -7.74662
lhand -21.3673 -12.691
lfingers 7.12502
lthumb 5.01968 17.2296
rfemur -23.841 6.54408 19.1433
rtibia 10.5706
rfoot -19.4479 -3.75797
rtoes -25.6639
lfemur -22.0493 -3.37535 -24.8544
ltibia 6.95906
lfoot -5.95819 -6.87341
ltoes -18.4637
46
root -1.37176 17.96 20.6185 -154.886 0.940751 177.972
lowerback -27.5758 -3.16924 -7.89452
upperback -0.736117 -1.04973 -0.246835
thorax 14.006 -0.737362 3.70149
lowerneck -1.23206 -3.64035 -0.153183
upperneck 7.83605 -4.91689 3.82181
head 2.8185 -2.23004 1.11823
rclavicle -5.36719e-015 -4.05521e-014
rhumerus -38.2205 -18.0927 -77.5589
rradius 32.1299
rwrist -2.70969
rhand -9.03258 -54.4741
rfingers 7.12502
rthumb 16.9151 -83.7575
lclavicle -5.36719e-015 -4.05521e-014
lhumerus -31.559 6.71601 79.1794
lradius 19.0714
lwrist -7.93758
lhand -21.2479 -12.3784
lfingers 7.12502
lthumb 5.13499 17.5394
rfemur -23.8838 6.75739 19.2159
rtibia 10.5955
rfoot -19.5318 -3.97861
rtoes -25.416
lfemur -22.1354 -3.15292 -24.7802
ltibia 7.09865
lfoot -6.03463 -7.10148
ltoes -18.7774
47
root -1.37336 17.9589 20.6169 -154.846 0.947481 178.038
lowerback -27.7066 -3.19305 -7.86695
upperback -0.681784 -1.08643 -0.203878
thorax 14.1357 -0.761487 3.71658
lowerneck -1.44756 -3.65324 -0.287535
upperneck 7.982 -4.94668 3.98906
head 2.91889 -2.2374 1.19115
rclavicle 1.42131e-014 -1.94809e-014
rhumerus -38.1924 -18.0045 -77.6401
rradius 32.1752
rwrist -2.96931
rhand -7.51649 -57.4584
rfingers 7.12502
rthumb 18.374 -86.6106
lclavicle 1.42131e-014 -1.94809e-014
lhumerus -31.518 7.31155 78.882
lradius 18.8186
lwrist -8.23801
lhand -21.0615 -12.1198
lfingers 7.12502
lthumb 5.31495 17.7935
rfemur -23.93 6.80206 19.2789
rtibia 10.6162
rfoot -19.5418 -3.94738
rtoes -25.5855
lfemur -22.1968 -2.93077 -24.758
ltibia 7.18822
lfoot -6.11642 -7.26249
ltoes -19.6623
48
root -1.37679 17.9579 20.6162 -154.826 1.01888 178.041
lowerback -27.7823 -3.17802 -7.84029
upperback -0.627199 -1.0645 -0.239391
thorax 14.2305 -0.755184 3.67012
lowerneck -2.11374 -3.74338 -0.42581
upperneck 8.79499 -5.0902 4.168
head 3.33783 -2.27453 1.25768
rclavicle -2.88238e-015 5.1684e-015
rhumerus -38.2484 -18.16 -77.6701
rradius 32.2438
rwrist -2.65148
rhand -7.05846 -58.3405
rfingers 7.12502
rthumb 18.8146 -87.4506
lclavicle -2.88238e-015 5.1684e-015
lhumerus -31.4534 7.72812 78.5621
lradius 18.5829
lwrist -8.48653
lhand -20.7791 -12.1921
lfingers 7.12502
lthumb 5.58764 17.7142
rfemur -23.9867 6.82993 19.2479
rtibia 10.6698
rfoot -19.539 -3.8334
rtoes -25.5742
lfemur -22.1901 -2.88069 -24.7963
ltibia 7.12004
lfoot -6.07692 -7.24047
ltoes -19.3648
49
root -1.38021 17.9575 20.6165 -154.815 1.08522 178.007
lowerback -27.7451 -3.15295 -7.8686
upperback -0.642092 -1.0144 -0.298357
thorax 14.1884 -0.729354 3.64125
lowerneck -1.76008 -3.4968 -0.376707
upperneck 8.04313 -4.74984 4.05334
head 2.99793 -2.13811 1.22915
rclavicle -4.37326e-015 -3.97569e-016
rhumerus -38.4289 -18.3674 -77.6143
rradius 32.2133
rwrist -2.37198
rhand -7.68641 -56.7746
rfingers 7.12502
rthumb 18.2106 -85.9422
lclavicle -4.37326e-015 -3.97569e-016
lhumerus -31.4695 7.93902 78.2628
lradius 18.3512
lwrist -8.75433
lhand -20.7945 -12.1388
lfingers 7.12502
lthumb 5.57274 17.7679
rfemur -24.0169 6.89211 19.1664
rtibia 10.6821
rfoot -19.533 -3.84874
rtoes -25.3432
lfemur -22.1687 -2.92896 -24.8513
ltibia 7.06408
lfoot -6.0699 -7.18751
ltoes -19.2454
50
root -1.38263 17.9571 20.6174 -154.784 1.13114 177.964
lowerback -27.7749 -3.13762 -7.9238
upperback -0.637078 -0.96294 -0.346593
thorax 14.2014 -0.707494 3.63785
lowerneck -1.8402 -3.37617 -0.433056
upperneck 8.05755 -4.5932 4.14178
head 3.01843 -2.05774 1.27207
rclavicle 6.95746e-016 5.1684e-015
rhumerus -38.4656 -18.499 -77.5542
rradius 32.0699
rwrist -2.18243
rhand -8.79434 -54.4025
rfingers 7.12502
rthumb 17.1444 -83.6661
lclavicle 6.95746e-016 5.1684e-015
lhumerus -31.4329 8.25618 77.9457
lradius 18.1024
lwrist -9.19525
lhand -21.0017 -11.7395
lfingers 7.12502
lthumb 5.37266 18.1724
rfemur -24.0625 6.94672 19.0835
rtibia 10.6851
rfoot -19.5455 -3.93911
rtoes -25.4199
lfemur -22.2019 -2.96952 -24.911
ltibia 7.07444
lfoot -6.11498 -7.18245
ltoes -19.8286
51
root -1.38425 17.9576 20.6173 -154.734 1.12555 178.004
lowerback -27.8861 -3.13433 -7.917
upperback -0.600971 -0.955148 -0.318229
thorax 14.2953 -0.709773 3.66597
lowerneck -2.09023 -3.35567 -0.486319
upperneck 8.33868 -4.57076 4.15057
head 3.16293 -2.03768 1.28182
rclavicle -1.2921e-014 -9.14409e-015
rhumerus -38.3968 -18.3276 -77.6316
rradius 31.904
rwrist -2.77859
rhand -8.36601 -56.4034
rfingers 7.12502
rthumb 17.5566 -85.6307
lclavicle -1.2921e-014 -9.14409e-015
lhumerus -31.39 8.41926 77.7883
lradius 17.9759
lwrist -9.24439
lhand -20.9528 -11.373
lfingers 7.12502
lthumb 5.41993 18.5377
rfemur -24.1222 6.96603 19.118
rtibia 10.6936
rfoot -19.5747 -3.96883
rtoes -25.9153
lfemur -22.2672 -3.03315 -24.8509
ltibia 7.09271
lfoot -6.15303 -7.13343
ltoes -19.9901
52
root -1.385 17.9572 20.615 -154.711 1.06986 178.127
lowerback -27.9619 -3.13849 -7.84136
upperback -0.568582 -0.994118 -0.242283
thorax 14.3746 -0.731042 3.69127
lowerneck -2.17334 -3.35001 -0.493027
upperneck 8.34804 -4.56397 4.10631
head 3.18032 -2.03646 1.26751
rclavicle -8.94531e-015 -1.59028e-015
rhumerus -38.4042 -18.3198 -77.5189
rradius 31.9211
rwrist -2.30764
rhand -8.72322 -54.861
rfingers 7.12502
rthumb 17.2128 -84.1187
lclavicle -8.94531e-015 -1.59028e-015
lhumerus -31.423 8.44609 77.711
lradius 17.9457
lwrist -9.02284
lhand -20.7388 -11.1548
lfingers 7.12502
lthumb 5.62654 18.7505
rfemur -24.1466 6.92548 19.2775
rtibia 10.7199
rfoot -19.6221 -3.89201
rtoes -25.8093
lfemur -22.3 -3.00053 -24.6982
ltibia 7.11129
lfoot -6.15177 -7.15634
ltoes -19.2547
53
root -1.38728 17.9568 20.6156 -154.712 1.05245 178.181
lowerback -27.8918 -3.13855 -7.7812
upperback -0.589594 -1.0242 -0.229428
thorax 14.3206 -0.738971 3.66242
lowerneck -2.16395 -3.34701 -0.453875
upperneck 8.27222 -4.56189 4.10296
head 3.15115 -2.03696 1.25969
rclavicle -9.93923e-017 -1.55052e-014
rhumerus -38.4019 -18.1561 -77.6218
rradius 31.8661
rwrist -2.6446
rhand -7.3245 -58.528
rfingers 7.12502
rthumb 18.5587 -87.6627
lclavicle -9.93923e-017 -1.55052e-014
lhumerus -31.5365 8.35244 77.6072
lradius 17.9395
lwrist -8.84641
lhand -20.9085 -10.9235
lfingers 7.12502
lthumb 5.46272 18.9861
rfemur -24.1632 6.92039 19.3388
rtibia 10.7665
rfoot -19.6437 -3.88216
rtoes -25.489
lfemur -22.3185 -2.81608 -24.6685
ltibia 7.11767
lfoot -6.05807 -7.33806
ltoes -18.1203
